<?xml version="1.0" standalone="no"?><!DOCTYPE svg PUBLIC "-//W3C//DTD SVG 1.1//EN" "http://www.w3.org/Graphics/SVG/1.1/DTD/svg11.dtd"><svg t="1773038614780" class="icon" viewBox="0 0 1024 1024" version="1.1" xmlns="http://www.w3.org/2000/svg" p-id="4932" xmlns:xlink="http://www.w3.org/1999/xlink" width="200" height="200"><path d="M467.264 87.008c-35.008 119.488-83.328 209.696-144.8 271.264-61.632 61.76-140.416 108.192-236.288 139.136-28.8 9.28-29.792 49.728-1.472 60.384 96.64 36.416 175.84 85.696 237.76 147.744 61.536 61.632 109.856 149.312 144.992 263.84 9.376 30.528 52.736 30.016 61.408-0.672 32.224-114.176 79.04-201.536 140.48-263.2 62.08-62.048 141.28-111.296 237.92-147.68 28.352-10.688 27.392-51.136-1.44-60.416-95.936-30.912-174.72-77.344-236.48-139.136-61.312-61.44-108.16-151.36-140.48-270.624-8.448-31.2-52.512-31.648-61.6-0.64z m29.76 110.08l5.056 12.864c31.872 79.36 72.384 143.872 121.984 193.536l11.072 10.784c48.704 46.112 105.984 84 171.616 113.6l4.064 1.76-9.344 4.576c-68.544 34.368-127.744 76.384-177.408 126.08l-8.992 9.28c-47.52 50.4-86.4 113.76-116.928 190.208l-1.056 2.688-1.312-3.264c-34.048-81.088-76.608-147.392-128-198.88l-11.616-11.328c-47.136-44.768-102.4-83.008-165.664-114.784l-9.408-4.608 4.16-1.76c70.624-31.872 131.616-73.344 182.528-124.352 51.584-51.68 94.176-119.552 128.128-203.52l1.12-2.88zM763.776 258.432c15.808 14.624 27.968 35.168 36.704 61.568 8.064-26.368 19.872-46.88 35.68-61.568 15.712-14.56 35.68-26.048 59.84-34.464-24.128-7.2-44.096-18.08-59.84-32.64-15.808-14.72-27.648-35.84-35.68-63.328-8.704 27.52-20.896 48.64-36.704 63.296-15.68 14.592-35.68 25.472-59.776 32.672 24.128 8.416 44.096 19.904 59.776 34.464z" fill="#ffffff" p-id="4933"></path></svg>